<svg width="20" height="21" viewBox="0 0 20 21" fill="none" xmlns="http://www.w3.org/2000/svg">
<path d="M8.4014 20C9.34472 20 10.1094 19.2267 10.1094 18.2727C10.1094 17.3188 9.34472 16.5455 8.4014 16.5455C7.45807 16.5455 6.69336 17.3188 6.69336 18.2727C6.69336 19.2267 7.45807 20 8.4014 20Z" stroke="white"/>
<path d="M16.3721 20C17.3154 20 18.0801 19.2266 18.0801 18.2727C18.0801 17.3187 17.3154 16.5454 16.3721 16.5454C15.4288 16.5454 14.6641 17.3187 14.6641 18.2727C14.6641 19.2266 15.4288 20 16.3721 20Z" stroke="white"/>
<path d="M1 1H3.27738L7.26736 13.6667H16.3723" stroke="white" stroke-linecap="round" stroke-linejoin="round"/>
<path d="M6.37834 10.7879L4.1875 3.87878H18.4291C18.5194 3.87867 18.6084 3.90026 18.6888 3.94178C18.7691 3.98329 18.8386 4.04354 18.8915 4.11754C18.9443 4.19155 18.979 4.27721 18.9926 4.36743C19.0063 4.45766 18.9985 4.54988 18.97 4.63648L17.0718 10.3941C17.034 10.5087 16.9616 10.6084 16.8648 10.679C16.7679 10.7497 16.6515 10.7878 16.5321 10.7879H6.37834Z" stroke="white" stroke-linecap="round" stroke-linejoin="round"/>
</svg>
