<svg width="12" height="10" viewBox="0 0 12 10" fill="none" xmlns="http://www.w3.org/2000/svg">
<path d="M9.79176 4.50006H0.499937C0.367345 4.50006 0.240185 4.55274 0.146428 4.64649C0.0526719 4.74025 0 4.86741 0 5C0 5.13259 0.0526719 5.25975 0.146428 5.35351C0.240185 5.44727 0.367345 5.49994 0.499937 5.49994H9.79176L6.14522 9.14548C6.05135 9.23935 5.99861 9.36667 5.99861 9.49943C5.99861 9.63219 6.05135 9.75951 6.14522 9.85339C6.2391 9.94726 6.36642 10 6.49918 10C6.63194 10 6.75926 9.94726 6.85314 9.85339L11.3526 5.35396C11.3991 5.30752 11.4361 5.25235 11.4613 5.19161C11.4865 5.13087 11.4994 5.06576 11.4994 5C11.4994 4.93424 11.4865 4.86913 11.4613 4.80839C11.4361 4.74765 11.3991 4.69248 11.3526 4.64604L6.85314 0.146613C6.75926 0.0527382 6.63194 0 6.49918 0C6.36642 0 6.2391 0.0527382 6.14522 0.146613C6.05135 0.240488 5.99861 0.367809 5.99861 0.500568C5.99861 0.633327 6.05135 0.760649 6.14522 0.854524L9.79176 4.50006Z" fill="#FE816D"/>
</svg>
