<svg width="17" height="18" viewBox="0 0 17 18" fill="none" xmlns="http://www.w3.org/2000/svg">
<path d="M15.9025 17.154L9.64046 10.892C9.14046 11.318 8.56546 11.6477 7.91546 11.881C7.26546 12.1143 6.61213 12.231 5.95546 12.231C4.35413 12.231 2.9988 11.6767 1.88946 10.568C0.780131 9.45933 0.225464 8.10433 0.225464 6.503C0.225464 4.90167 0.779464 3.546 1.88746 2.436C2.99546 1.326 4.35013 0.770333 5.95146 0.769C7.5528 0.767666 8.9088 1.32233 10.0195 2.433C11.1301 3.54367 11.6855 4.89933 11.6855 6.5C11.6855 7.19467 11.5625 7.867 11.3165 8.517C11.0705 9.167 10.7471 9.723 10.3465 10.185L16.6085 16.446L15.9025 17.154ZM5.95646 11.23C7.28313 11.23 8.40313 10.7733 9.31646 9.86C10.2298 8.94667 10.6865 7.82633 10.6865 6.499C10.6865 5.17167 10.2298 4.05167 9.31646 3.139C8.40313 2.22633 7.28313 1.76967 5.95646 1.769C4.6298 1.76833 3.50946 2.225 2.59546 3.139C1.68146 4.053 1.2248 5.173 1.22546 6.499C1.22613 7.825 1.6828 8.945 2.59546 9.859C3.50813 10.773 4.62813 11.2297 5.95546 11.229" fill="black"/>
</svg>
